<?xml version="1.0" encoding="UTF-8"?>
<svg xmlns="http://www.w3.org/2000/svg" xmlns:xlink="http://www.w3.org/1999/xlink" width="64px" height="32px" viewBox="0 0 64 32" version="1.1">
<g id="surface1">
<path style=" stroke:none;fill-rule:nonzero;fill:rgb(81.176471%,84.705882%,86.27451%);fill-opacity:1;" d="M 30.777344 7.519531 C 28.601562 5.886719 28.128906 3.703125 28.027344 2.808594 C 22.496094 3.40625 17.003906 4.476562 17.320312 5.265625 C 17.359375 5.367188 17.609375 5.484375 18.027344 5.601562 L 17.375 6.183594 C 16.582031 5.960938 16.132812 5.703125 16.011719 5.398438 C 15.65625 4.503906 17.679688 3.695312 22.203125 2.925781 C 25.289062 2.398438 28.40625 2.085938 28.539062 2.074219 L 29.332031 1.992188 L 29.332031 2.398438 C 29.332031 2.429688 29.367188 5.257812 31.886719 7.148438 Z M 30.777344 7.519531 "/>
<path style=" stroke:none;fill-rule:nonzero;fill:rgb(81.176471%,84.705882%,86.27451%);fill-opacity:1;" d="M 33 28.667969 L 32.667969 28.667969 C 21.742188 28.667969 9.589844 26.953125 8.152344 24.082031 C 7.277344 22.328125 10.140625 20.390625 16.4375 18.480469 L 17.128906 19.050781 C 11.464844 20.769531 8.734375 22.496094 9.445312 23.917969 C 10.691406 26.410156 22.214844 27.964844 32.316406 28 C 33.519531 27.101562 39.972656 21.824219 36.289062 14.75 L 37.578125 14.582031 C 41.777344 22.644531 33.289062 28.472656 33.203125 28.53125 Z M 33 28.667969 "/>
<path style=" stroke:none;fill-rule:nonzero;fill:rgb(81.176471%,84.705882%,86.27451%);fill-opacity:1;" d="M 13.242188 26.203125 C 12.523438 26.203125 12.167969 26.164062 12.109375 26.15625 C 11.875 26.128906 11.6875 26.039062 11.625 25.921875 C 11.558594 25.808594 11.625 25.683594 11.796875 25.597656 C 11.894531 25.550781 21.394531 20.792969 22.675781 16.945312 L 23.992188 17.054688 C 22.886719 20.363281 16.371094 24.136719 13.78125 25.527344 C 16.367188 25.453125 22.894531 24.847656 35.429688 21.339844 C 25.648438 20.804688 24.101562 16.886719 24.085938 16.847656 L 25.394531 16.726562 C 25.457031 16.890625 27.03125 20.734375 37.722656 20.734375 C 37.726562 20.734375 37.726562 20.734375 37.730469 20.734375 C 38.035156 20.734375 38.296875 20.835938 38.375 20.980469 C 38.453125 21.125 38.328125 21.28125 38.066406 21.355469 C 23.085938 25.695312 15.824219 26.203125 13.242188 26.203125 Z M 13.242188 26.203125 "/>
<path style=" stroke:none;fill-rule:nonzero;fill:rgb(81.176471%,84.705882%,86.27451%);fill-opacity:1;" d="M 19.367188 27.800781 C 19.089844 27.800781 18.839844 27.714844 18.742188 27.582031 C 18.636719 27.441406 18.730469 27.285156 18.976562 27.195312 C 19.023438 27.179688 21.394531 26.304688 23.917969 24.375 C 22.949219 24.160156 21.964844 23.910156 20.992188 23.617188 C 19.808594 23.261719 18.910156 22.882812 18.242188 22.492188 C 14.816406 22.941406 11.65625 23.121094 8.878906 23.003906 L 8.988281 22.339844 C 11.492188 22.445312 14.335938 22.296875 17.417969 21.914062 C 15.320312 20.121094 17.246094 18.34375 17.273438 18.320312 L 18.4375 18.644531 C 18.347656 18.726562 16.75 20.222656 18.769531 21.730469 C 21.703125 21.3125 24.835938 20.6875 28.074219 19.878906 C 28.820312 18.652344 29.402344 17.261719 29.707031 15.691406 C 29.730469 15.585938 29.851562 15.492188 30.039062 15.4375 C 30.226562 15.382812 30.453125 15.378906 30.648438 15.421875 C 30.691406 15.433594 35 16.417969 38.121094 17.058594 C 38.347656 17.105469 38.503906 17.210938 38.53125 17.332031 C 38.558594 17.453125 38.445312 17.574219 38.242188 17.644531 C 35.191406 18.683594 32.160156 19.585938 29.207031 20.335938 C 28.269531 21.820312 27.109375 23.054688 25.925781 24.066406 C 30.863281 24.988281 35.148438 25 35.203125 25 C 35.503906 25 35.769531 25.101562 35.847656 25.25 C 35.921875 25.398438 35.789062 25.550781 35.523438 25.625 C 29.472656 27.308594 19.835938 27.78125 19.429688 27.800781 C 19.40625 27.800781 19.386719 27.800781 19.367188 27.800781 Z M 25.210938 24.644531 C 23.824219 25.71875 22.460938 26.492188 21.445312 26.996094 C 24.109375 26.800781 28.777344 26.371094 32.65625 25.570312 C 30.796875 25.457031 28.113281 25.203125 25.210938 24.644531 Z M 19.6875 22.289062 C 20.214844 22.546875 20.867188 22.804688 21.675781 23.046875 C 22.65625 23.34375 23.652344 23.59375 24.636719 23.804688 C 25.640625 22.960938 26.636719 21.949219 27.492188 20.757812 C 24.796875 21.398438 22.179688 21.910156 19.6875 22.289062 Z M 30.9375 16.21875 C 30.664062 17.398438 30.242188 18.472656 29.71875 19.453125 C 31.933594 18.863281 34.191406 18.1875 36.46875 17.433594 C 34.402344 16.996094 32.132812 16.488281 30.9375 16.21875 Z M 30.9375 16.21875 "/>
<path style=" stroke:none;fill-rule:nonzero;fill:rgb(81.176471%,84.705882%,86.27451%);fill-opacity:1;" d="M 23.898438 7.066406 C 23.742188 7.066406 23.589844 7.039062 23.464844 6.988281 C 21.320312 6.066406 18.792969 4.199219 18.683594 4.121094 C 18.511719 3.992188 18.539062 3.820312 18.746094 3.707031 C 18.953125 3.59375 19.289062 3.566406 19.558594 3.640625 C 19.570312 3.644531 20.808594 3.898438 29.179688 4.59375 C 29.421875 4.613281 29.621094 4.699219 29.699219 4.8125 C 29.78125 4.929688 29.730469 5.054688 29.566406 5.148438 C 27.222656 6.449219 24.261719 7.023438 24.136719 7.046875 C 24.058594 7.058594 23.976562 7.066406 23.898438 7.066406 Z M 20.863281 4.496094 C 21.703125 5.0625 22.914062 5.828125 24.023438 6.34375 C 24.707031 6.1875 26.234375 5.796875 27.683594 5.144531 C 24.238281 4.851562 22.136719 4.640625 20.863281 4.496094 Z M 20.863281 4.496094 "/>
<path style=" stroke:none;fill-rule:nonzero;fill:rgb(71.764706%,10.980392%,10.980392%);fill-opacity:1;" d="M 29.125 16.265625 C 29.035156 16.265625 28.941406 16.257812 28.855469 16.238281 C 28.589844 16.179688 28.429688 16.042969 28.460938 15.898438 C 28.851562 14.066406 23.226562 13.332031 23.167969 13.324219 C 22.9375 13.292969 22.753906 13.203125 22.691406 13.089844 C 22.628906 12.972656 22.691406 12.851562 22.863281 12.765625 C 23.136719 12.628906 29.714844 9.367188 37.964844 7.574219 C 38.195312 7.527344 38.457031 7.542969 38.652344 7.621094 C 38.84375 7.703125 38.933594 7.828125 38.882812 7.949219 C 37.300781 11.777344 29.9375 15.976562 29.625 16.15625 C 29.492188 16.226562 29.308594 16.265625 29.125 16.265625 Z M 24.605469 12.855469 C 26.183594 13.152344 28.949219 13.839844 29.652344 15.09375 C 31.582031 13.886719 35.707031 11.113281 37.246094 8.472656 C 31.398438 9.878906 26.472656 12 24.605469 12.855469 Z M 24.605469 12.855469 "/>
<path style=" stroke:none;fill-rule:nonzero;fill:rgb(71.764706%,10.980392%,10.980392%);fill-opacity:1;" d="M 17.4375 18.90625 L 16.804688 18.320312 C 19.316406 17.644531 22.191406 16.398438 24.546875 14.949219 C 22.542969 15.636719 21.394531 16.105469 21.359375 16.121094 L 20.507812 15.609375 C 20.558594 15.589844 22.859375 14.644531 26.679688 13.460938 C 27.730469 12.617188 28.539062 11.75 28.953125 10.917969 C 29.023438 10.777344 29.082031 10.640625 29.132812 10.507812 C 26.566406 10.050781 24.199219 9.78125 22.570312 9.664062 C 22.324219 9.644531 22.121094 9.5625 22.039062 9.445312 C 21.953125 9.328125 22.007812 9.195312 22.175781 9.105469 C 22.289062 9.042969 24.996094 7.59375 28.382812 6.796875 C 28.644531 6.734375 28.957031 6.765625 29.15625 6.875 C 29.246094 6.921875 31.074219 7.949219 30.609375 10.078125 C 32.152344 10.375 33.738281 10.742188 35.265625 11.175781 C 38.945312 10.347656 43.121094 9.605469 47.570312 9.15625 C 47.800781 9.132812 48.054688 9.175781 48.210938 9.265625 C 48.367188 9.359375 48.410156 9.488281 48.324219 9.601562 C 46.589844 11.824219 41.941406 14.195312 41.742188 14.296875 C 41.609375 14.363281 41.425781 14.398438 41.234375 14.394531 C 41.042969 14.390625 40.867188 14.34375 40.746094 14.269531 C 39.253906 13.332031 37.300781 12.554688 35.195312 11.921875 C 32.296875 12.589844 29.726562 13.308594 27.617188 13.953125 C 24.925781 16.054688 20.859375 17.984375 17.4375 18.90625 Z M 36.65625 11.597656 C 38.375 12.152344 39.976562 12.804688 41.300781 13.5625 C 42.40625 12.964844 45.054688 11.449219 46.558594 9.949219 C 43.023438 10.355469 39.679688 10.941406 36.65625 11.597656 Z M 30.398438 10.746094 C 30.355469 10.855469 30.304688 10.96875 30.246094 11.082031 C 29.96875 11.640625 29.523438 12.214844 28.953125 12.789062 C 30.414062 12.371094 32.03125 11.941406 33.777344 11.523438 C 32.660156 11.226562 31.519531 10.96875 30.398438 10.746094 Z M 24.0625 9.113281 C 25.546875 9.261719 27.371094 9.496094 29.320312 9.839844 C 29.519531 8.609375 28.855469 7.855469 28.457031 7.523438 C 26.621094 8.003906 25.015625 8.675781 24.0625 9.113281 Z M 24.0625 9.113281 "/>
<path style=" stroke:none;fill-rule:nonzero;fill:rgb(71.764706%,10.980392%,10.980392%);fill-opacity:1;" d="M 24.066406 12.332031 C 24.066406 15.253906 19.199219 17.574219 15.691406 19.265625 C 15.105469 19.554688 13.121094 19.601562 13.121094 19.601562 C 13.613281 19.347656 14.171875 19.078125 14.773438 18.792969 C 18.105469 17.179688 22.734375 14.972656 22.734375 12.332031 C 22.734375 9.207031 20.214844 7.972656 18.226562 6.988281 C 17.347656 6.539062 16.601562 6.113281 16.148438 5.59375 L 16.558594 5.507812 C 17.011719 5.605469 17.535156 5.71875 17.933594 5.808594 C 18.253906 6.039062 18.679688 6.265625 19.171875 6.511719 C 21.214844 7.535156 24.066406 8.933594 24.066406 12.332031 Z M 24.066406 12.332031 "/>
<path style=" stroke:none;fill-rule:nonzero;fill:rgb(71.764706%,10.980392%,10.980392%);fill-opacity:1;" d="M 57.246094 13.195312 C 57.246094 13.195312 56.441406 13.253906 56.214844 13.265625 C 44.535156 13.914062 32.480469 15.59375 25.585938 16.972656 C 23.09375 17.472656 20.507812 18.078125 18.148438 18.761719 C 18.132812 18.765625 18.121094 18.765625 18.09375 18.773438 C 16.707031 19.171875 13.332031 20 10.601562 20.726562 C 14.601562 18.601562 22.09375 16.960938 25.078125 16.359375 C 31.839844 15.007812 43.453125 13.375 54.878906 12.671875 C 53.535156 11.886719 50.238281 10.21875 43.761719 8.980469 C 39.972656 8.246094 34.214844 7.832031 29.132812 7.464844 C 21.054688 6.886719 16.453125 6.5 16.011719 5.398438 C 15.921875 5.179688 15.988281 4.960938 16.1875 4.746094 C 16.625 5.105469 17.253906 5.359375 17.667969 5.507812 C 17.867188 5.574219 18.011719 5.613281 18.066406 5.625 L 18.078125 5.632812 C 19.972656 6.132812 25.078125 6.5 29.332031 6.808594 C 34.480469 7.179688 40.308594 7.601562 44.238281 8.351562 C 53.398438 10.121094 56.558594 12.648438 56.691406 12.753906 C 56.8125 12.851562 57.246094 13.195312 57.246094 13.195312 Z M 57.246094 13.195312 "/>
<path style=" stroke:none;fill-rule:nonzero;fill:rgb(0%,0%,0%);fill-opacity:1;" d="M 11.003906 26.589844 C 11.003906 26.441406 10.902344 26.328125 10.691406 26.25 C 10.484375 26.167969 10.109375 26.085938 9.566406 26 C 9.027344 25.910156 8.597656 25.824219 8.28125 25.738281 C 7.421875 25.507812 6.992188 25.195312 6.992188 24.800781 C 6.992188 24.59375 7.105469 24.410156 7.335938 24.25 C 7.566406 24.089844 7.898438 23.964844 8.332031 23.875 C 8.761719 23.785156 9.246094 23.738281 9.785156 23.738281 C 10.328125 23.738281 10.808594 23.789062 11.234375 23.886719 C 11.660156 23.984375 11.988281 24.125 12.222656 24.300781 C 12.457031 24.480469 12.574219 24.683594 12.574219 24.910156 L 11.011719 24.910156 C 11.011719 24.738281 10.902344 24.601562 10.683594 24.507812 C 10.464844 24.410156 10.15625 24.363281 9.761719 24.363281 C 9.378906 24.363281 9.082031 24.402344 8.871094 24.484375 C 8.660156 24.5625 8.554688 24.671875 8.554688 24.800781 C 8.554688 24.925781 8.675781 25.027344 8.921875 25.113281 C 9.171875 25.195312 9.539062 25.273438 10.019531 25.347656 C 10.910156 25.480469 11.558594 25.644531 11.964844 25.84375 C 12.371094 26.042969 12.574219 26.289062 12.574219 26.582031 C 12.574219 26.910156 12.324219 27.167969 11.828125 27.355469 C 11.332031 27.542969 10.664062 27.636719 9.824219 27.636719 C 9.238281 27.636719 8.707031 27.582031 8.226562 27.476562 C 7.75 27.367188 7.386719 27.222656 7.132812 27.035156 C 6.882812 26.851562 6.753906 26.636719 6.753906 26.390625 L 8.324219 26.390625 C 8.324219 26.808594 8.824219 27.019531 9.824219 27.019531 C 10.195312 27.019531 10.484375 26.980469 10.691406 26.90625 C 10.902344 26.828125 11.003906 26.722656 11.003906 26.589844 Z M 19.847656 25.605469 L 19.847656 25.773438 C 19.847656 26.128906 19.734375 26.433594 19.503906 26.695312 C 19.277344 26.957031 18.957031 27.167969 18.554688 27.324219 L 19.8125 27.820312 L 18.816406 28.261719 L 17.203125 27.613281 C 17.019531 27.628906 16.828125 27.636719 16.628906 27.636719 C 16.003906 27.636719 15.441406 27.558594 14.949219 27.410156 C 14.453125 27.257812 14.074219 27.042969 13.800781 26.761719 C 13.53125 26.480469 13.394531 26.160156 13.390625 25.792969 L 13.390625 25.605469 C 13.390625 25.234375 13.523438 24.90625 13.792969 24.621094 C 14.0625 24.335938 14.445312 24.121094 14.9375 23.96875 C 15.425781 23.816406 15.988281 23.738281 16.621094 23.738281 C 17.253906 23.738281 17.8125 23.816406 18.304688 23.96875 C 18.796875 24.121094 19.175781 24.335938 19.445312 24.621094 C 19.714844 24.90625 19.847656 25.234375 19.847656 25.605469 Z M 18.265625 25.785156 L 18.265625 25.601562 C 18.265625 25.203125 18.125 24.902344 17.839844 24.695312 C 17.554688 24.488281 17.148438 24.386719 16.621094 24.386719 C 16.097656 24.386719 15.691406 24.488281 15.40625 24.691406 C 15.121094 24.894531 14.976562 25.195312 14.972656 25.589844 L 14.972656 25.773438 C 14.972656 26.160156 15.117188 26.460938 15.402344 26.675781 C 15.6875 26.886719 16.097656 26.996094 16.628906 26.996094 C 17.152344 26.996094 17.558594 26.890625 17.839844 26.6875 C 18.121094 26.480469 18.261719 26.179688 18.265625 25.785156 Z M 22.558594 23.792969 L 22.558594 26.957031 L 25.875 26.957031 L 25.875 27.582031 L 20.996094 27.582031 L 20.996094 23.792969 Z M 33.359375 26.589844 C 33.359375 26.441406 33.253906 26.328125 33.046875 26.25 C 32.835938 26.167969 32.460938 26.085938 31.921875 26 C 31.378906 25.910156 30.949219 25.824219 30.636719 25.738281 C 29.773438 25.507812 29.34375 25.195312 29.34375 24.800781 C 29.34375 24.59375 29.460938 24.410156 29.691406 24.25 C 29.921875 24.089844 30.253906 23.964844 30.6875 23.875 C 31.117188 23.785156 31.601562 23.738281 32.140625 23.738281 C 32.683594 23.738281 33.164062 23.789062 33.589844 23.886719 C 34.011719 23.984375 34.339844 24.125 34.574219 24.300781 C 34.808594 24.480469 34.925781 24.683594 34.925781 24.910156 L 33.363281 24.910156 C 33.363281 24.738281 33.253906 24.601562 33.035156 24.507812 C 32.816406 24.410156 32.511719 24.363281 32.113281 24.363281 C 31.730469 24.363281 31.433594 24.402344 31.222656 24.484375 C 31.011719 24.5625 30.90625 24.671875 30.90625 24.800781 C 30.90625 24.925781 31.03125 25.027344 31.277344 25.113281 C 31.527344 25.195312 31.890625 25.273438 32.375 25.347656 C 33.265625 25.480469 33.910156 25.644531 34.316406 25.84375 C 34.722656 26.042969 34.925781 26.289062 34.925781 26.582031 C 34.925781 26.910156 34.679688 27.167969 34.183594 27.355469 C 33.6875 27.542969 33.015625 27.636719 32.175781 27.636719 C 31.59375 27.636719 31.0625 27.582031 30.582031 27.476562 C 30.101562 27.367188 29.738281 27.222656 29.484375 27.035156 C 29.234375 26.851562 29.109375 26.636719 29.109375 26.390625 L 30.675781 26.390625 C 30.675781 26.808594 31.175781 27.019531 32.175781 27.019531 C 32.546875 27.019531 32.835938 26.980469 33.046875 26.90625 C 33.253906 26.828125 33.359375 26.722656 33.359375 26.589844 Z M 38.476562 27.636719 C 37.652344 27.636719 36.980469 27.507812 36.460938 27.253906 C 35.941406 27 35.683594 26.664062 35.683594 26.242188 L 35.683594 26.167969 C 35.683594 25.886719 35.792969 25.632812 36.011719 25.410156 C 36.230469 25.1875 36.539062 25.015625 36.941406 24.894531 C 37.339844 24.773438 37.796875 24.714844 38.3125 24.714844 C 39.082031 24.714844 39.691406 24.835938 40.132812 25.078125 C 40.574219 25.320312 40.796875 25.664062 40.796875 26.113281 L 40.796875 26.417969 L 37.207031 26.417969 C 37.257812 26.601562 37.402344 26.75 37.648438 26.863281 C 37.894531 26.972656 38.203125 27.027344 38.578125 27.027344 C 39.160156 27.027344 39.613281 26.921875 39.9375 26.714844 L 40.675781 27.128906 C 40.449219 27.289062 40.144531 27.410156 39.761719 27.5 C 39.375 27.589844 38.949219 27.636719 38.476562 27.636719 Z M 38.308594 25.324219 C 38.007812 25.324219 37.765625 25.371094 37.582031 25.472656 C 37.394531 25.574219 37.273438 25.71875 37.222656 25.90625 L 39.316406 25.90625 L 39.316406 25.847656 C 39.3125 25.679688 39.222656 25.550781 39.046875 25.460938 C 38.871094 25.367188 38.625 25.324219 38.308594 25.324219 Z M 44.839844 24.746094 L 44.816406 25.472656 C 44.613281 25.457031 44.433594 25.449219 44.277344 25.449219 C 43.707031 25.449219 43.332031 25.546875 43.15625 25.738281 L 43.15625 27.582031 L 41.652344 27.582031 L 41.652344 24.765625 L 43.074219 24.765625 L 43.113281 25.101562 C 43.417969 24.84375 43.835938 24.714844 44.371094 24.714844 C 44.539062 24.714844 44.691406 24.726562 44.839844 24.746094 Z M 46.699219 24.765625 L 47.746094 26.664062 L 48.789062 24.765625 L 50.363281 24.765625 L 48.464844 27.582031 L 47.027344 27.582031 L 45.125 24.765625 Z M 53.550781 27.636719 C 52.726562 27.636719 52.054688 27.507812 51.535156 27.253906 C 51.015625 27 50.753906 26.664062 50.753906 26.242188 L 50.753906 26.167969 C 50.753906 25.886719 50.863281 25.632812 51.082031 25.410156 C 51.300781 25.1875 51.613281 25.015625 52.011719 24.894531 C 52.414062 24.773438 52.871094 24.714844 53.386719 24.714844 C 54.15625 24.714844 54.761719 24.835938 55.207031 25.078125 C 55.648438 25.320312 55.871094 25.664062 55.871094 26.113281 L 55.871094 26.417969 L 52.28125 26.417969 C 52.328125 26.601562 52.476562 26.75 52.722656 26.863281 C 52.964844 26.972656 53.277344 27.027344 53.652344 27.027344 C 54.230469 27.027344 54.683594 26.921875 55.011719 26.714844 L 55.75 27.128906 C 55.523438 27.289062 55.21875 27.410156 54.832031 27.5 C 54.449219 27.589844 54.019531 27.636719 53.550781 27.636719 Z M 53.378906 25.324219 C 53.082031 25.324219 52.839844 25.371094 52.652344 25.472656 C 52.46875 25.574219 52.347656 25.71875 52.296875 25.90625 L 54.390625 25.90625 L 54.390625 25.847656 C 54.382812 25.679688 54.292969 25.550781 54.121094 25.460938 C 53.945312 25.367188 53.699219 25.324219 53.378906 25.324219 Z M 59.910156 24.746094 L 59.890625 25.472656 C 59.6875 25.457031 59.503906 25.449219 59.347656 25.449219 C 58.78125 25.449219 58.40625 25.546875 58.226562 25.738281 L 58.226562 27.582031 L 56.722656 27.582031 L 56.722656 24.765625 L 58.144531 24.765625 L 58.1875 25.101562 C 58.488281 24.84375 58.910156 24.714844 59.441406 24.714844 C 59.609375 24.714844 59.765625 24.726562 59.910156 24.746094 Z M 59.910156 24.746094 "/>
</g>
</svg>
