<svg xmlns="http://www.w3.org/2000/svg" xmlns:xlink="http://www.w3.org/1999/xlink" width="300.015" height="96.644" viewBox="0 0 300.015 96.644"><defs><linearGradient id="a" x1="-12510.594" y1="779.016" x2="-12481.868" y2="785.733" gradientUnits="objectBoundingBox"><stop offset="0" stop-color="#38b6ab"/><stop offset="1" stop-color="#30988f"/></linearGradient><linearGradient id="b" x1="-5092.561" y1="2182.022" x2="-5080.88" y2="2200.743" xlink:href="#a"/><linearGradient id="c" x1="-3375.427" y1="1622.328" x2="-3367.68" y2="1636.207" xlink:href="#a"/><linearGradient id="d" x1="-4129.19" y1="1879.1" x2="-4119.725" y2="1895.22" xlink:href="#a"/><linearGradient id="e" x1="-6641.787" y1="1765.501" x2="-6626.537" y2="1780.689" xlink:href="#a"/><linearGradient id="f" x1="-7249.547" y1="2756.028" x2="-7232.911" y2="2779.734" xlink:href="#a"/><linearGradient id="g" x1="-3740.769" y1="1595.847" x2="-3731.629" y2="1601.423" gradientUnits="objectBoundingBox"><stop offset="0.63" stop-color="#005077"/><stop offset="1" stop-color="#004364"/></linearGradient><linearGradient id="h" x1="-3106.842" y1="1080.735" x2="-3099.245" y2="1084.516" xlink:href="#g"/><linearGradient id="i" x1="-3628.986" y1="1682.698" x2="-3620.107" y2="1688.573" xlink:href="#g"/><linearGradient id="j" x1="-3865.075" y1="1886.24" x2="-3855.624" y2="1892.84" xlink:href="#g"/><linearGradient id="k" x1="-8563.193" y1="4494.115" x2="-8542.301" y2="4509.829" xlink:href="#g"/><linearGradient id="l" x1="-3859.946" y1="1517.482" x2="-3850.495" y2="1522.804" xlink:href="#g"/><linearGradient id="m" x1="-12516.82" y1="782.866" x2="-12486.159" y2="785.608" xlink:href="#g"/><linearGradient id="n" x1="-5092.922" y1="2188.65" x2="-5080.454" y2="2196.301" xlink:href="#g"/><linearGradient id="o" x1="-865.657" y1="459.044" x2="-863.538" y2="460.646" xlink:href="#g"/><linearGradient id="p" x1="-2754.986" y1="1408.448" x2="-2748.262" y2="1413.358" xlink:href="#g"/><linearGradient id="q" x1="-3374.244" y1="1625.431" x2="-3365.99" y2="1631.104" xlink:href="#g"/><linearGradient id="r" x1="-4128.673" y1="1883.76" x2="-4118.569" y2="1890.36" xlink:href="#g"/><linearGradient id="s" x1="-6644.648" y1="1772.972" x2="-6628.37" y2="1779.18" xlink:href="#g"/><linearGradient id="t" x1="-7251.305" y1="2765.822" x2="-7233.578" y2="2775.528" xlink:href="#g"/><linearGradient id="u" x1="-157.048" y1="50.873" x2="-156.662" y2="51.049" xlink:href="#g"/><linearGradient id="w" x1="-35.322" y1="-28.434" x2="-1.714" y2="-21.836" xlink:href="#a"/><linearGradient id="x" x1="-6.565" y1="-90.372" x2="5.37" y2="-71.605" xlink:href="#a"/><linearGradient id="y" x1="-1.586" y1="-69.776" x2="6.243" y2="-55.879" xlink:href="#a"/><linearGradient id="z" x1="-3.638" y1="-77.784" x2="5.845" y2="-61.98" xlink:href="#a"/><linearGradient id="aa" x1="-11.997" y1="-5837.207" x2="536.886" y2="-5030.764" xlink:href="#a"/><linearGradient id="ab" x1="-14.235" y1="-68.017" x2="1.912" y2="-53.092" xlink:href="#a"/><linearGradient id="ac" x1="-12.094" y1="-112.001" x2="5.062" y2="-88.324" xlink:href="#a"/><linearGradient id="ad" x1="-3.859" y1="-62.017" x2="5.297" y2="-56.424" gradientUnits="objectBoundingBox"><stop offset="0.63" stop-color="#208a7a"/><stop offset="1" stop-color="#1d7467"/></linearGradient><linearGradient id="ae" x1="-6.39" y1="-38.655" x2="1.221" y2="-34.862" xlink:href="#ad"/><linearGradient id="af" x1="-1.567" y1="-69.054" x2="7.179" y2="-63.054" xlink:href="#ad"/><linearGradient id="ag" x1="0.667" y1="-78.76" x2="9.968" y2="-72.16" xlink:href="#ad"/><linearGradient id="ah" x1="6.074" y1="-203.903" x2="27.815" y2="-187.403" xlink:href="#ad"/><linearGradient id="ai" x1="-5.921" y1="-56.887" x2="3.365" y2="-51.58" xlink:href="#ad"/><linearGradient id="aj" x1="-42.607" y1="-24.656" x2="-6.734" y2="-21.951" xlink:href="#ad"/><linearGradient id="ak" x1="-6.935" y1="-83.744" x2="5.783" y2="-76.07" xlink:href="#ad"/><linearGradient id="al" x1="1.65" y1="-19.99" x2="3.765" y2="-18.388" xlink:href="#ad"/><linearGradient id="am" x1="1.563" y1="-58.824" x2="8.299" y2="-53.985" xlink:href="#ad"/><linearGradient id="an" x1="-0.4" y1="-66.672" x2="7.986" y2="-60.983" xlink:href="#ad"/><linearGradient id="ao" x1="-3.121" y1="-73.215" x2="7" y2="-66.745" xlink:href="#ad"/><linearGradient id="ap" x1="-413.911" y1="-6051.324" x2="171.964" y2="-5722.144" xlink:href="#ad"/><linearGradient id="aq" x1="-17.265" y1="-60.684" x2="-0.029" y2="-54.573" xlink:href="#ad"/><linearGradient id="ar" x1="-13.938" y1="-102.266" x2="4.375" y2="-92.589" xlink:href="#ad"/><linearGradient id="as" x1="0.409" y1="-1.797" x2="0.797" y2="-1.62" xlink:href="#ad"/></defs><g transform="translate(0.015 -0.012)"><path d="M261,60.88c-6.58,0-11.45-2.5-13.26-9.18h25.87a8.76,8.76,0,0,0,8.76-8.76,8.549,8.549,0,0,0-.06-1c-.06-.38-.11-.71-.16-1a22.71,22.71,0,0,0-22.42-17.89c-14.07,0-24.28,10.13-24.28,24.09,0,14.19,10.43,24.09,25.33,24.09,8.21,0,14.62-2.78,19.08-8.29l-9.48-5.45A14.1,14.1,0,0,1,261,60.88ZM247.56,43.37c1.15-5.8,5.17-10.06,12-10.06,5,0,8.47,2.27,10.44,5.77a2.87,2.87,0,0,1-2.48,4.29Z" fill="#0c2e41"/><path d="M177.74,60.88c-6.57,0-11.44-2.5-13.26-9.18h25.87a8.76,8.76,0,0,0,8.76-8.76,8.546,8.546,0,0,0-.06-1,6.082,6.082,0,0,0-.16-1,22.7,22.7,0,0,0-22.42-17.89c-14.07,0-24.28,10.13-24.28,24.09,0,14.19,10.44,24.09,25.33,24.09,8.21,0,14.63-2.78,19.09-8.29l-9.48-5.45a14.15,14.15,0,0,1-9.39,3.39ZM164.28,43.37c1.16-5.8,5.17-10.06,12-10.06,5,0,8.46,2.27,10.43,5.77A2.87,2.87,0,0,1,185.62,43a2.82,2.82,0,0,1-1.42.38Z" fill="#0c2e41"/><path d="M131.19,42.12c-4.35-1.15-7.82-2-7.82-4.95,0-1.89,1.38-3.91,5.21-3.91a7.6,7.6,0,0,1,5.58,2.21,2.83,2.83,0,0,0,3.37.47l8-4.34c-3.74-5.54-9.72-8.58-17-8.58C119.83,23,111,27.5,111,37.52c0,9.68,8.69,12.11,15.65,14,4.41,1.23,7.89,2.2,7.89,5,0,1.56-.87,4.2-6.4,4.2a9.3,9.3,0,0,1-7.47-3.13,2.87,2.87,0,0,0-3.61-.69l-7.92,4.51c3.55,6.44,9.94,9.7,19,9.7S147,67.43,147,56.74C147,46.28,138.23,44,131.19,42.12Z" fill="#0c2e41"/><path d="M220.23,38.69a11.39,11.39,0,0,1,9.24-3A10.13,10.13,0,0,1,231,36V23.48c-3.69,0-9.18-.09-12.34,3.56a8.6,8.6,0,0,0-2.08,5.14h0a8,8,0,0,0-8-8h-3.47v37.3A8.55,8.55,0,0,0,213.64,70h2.94V47.15a11.32,11.32,0,0,1,3.65-8.46Z" fill="#0c2e41"/><path d="M288.55,9.77V70h2.83A8.62,8.62,0,0,0,300,61.41V1.24h-2.93a8.53,8.53,0,0,0-8.52,8.53Z" fill="#0c2e41"/><path d="M22.63,29l-.64.59Z" fill="#38b6ab"/><path d="M20.55,31c-.29.3-.54.6-.77.87C20,31.58,20.27,31.31,20.55,31Z" fill="#38b6ab"/><path d="M23.85,27.94l-.66.56Z" fill="#38b6ab"/><path d="M19.78,36.53c-3.64-4-6.44-8.49-5.7-18.65C8.54,23.33,4.61,28.7,4.61,34.19h0C4.61,44.7,19.12,55,31.75,65.85A10.74,10.74,0,0,0,45,66.3l4-3a3.63,3.63,0,0,0-.26-6C37.1,50.11,23.6,41.3,19.79,36.49" fill="#026a94"/><path d="M20.89,30.64c.2-.2.4-.41.62-.62C21.28,30.23,21.07,30.44,20.89,30.64Z" fill="#38b6ab"/><path d="M19,34.2a3.34,3.34,0,0,1,.19-1.2A3.34,3.34,0,0,0,19,34.2Z" fill="url(#a)"/><path d="M21.49,30c.15-.15.32-.29.47-.43Z" fill="url(#b)"/><path d="M24.56,27.36l-.71.58Z" fill="url(#c)"/><path d="M23.19,28.5l-.58.5Z" fill="url(#d)"/><path d="M14.07,17.87v.01h0Z" fill="#fff"/><path d="M19.42,32.4a6.18,6.18,0,0,1,.36-.53h0a6.18,6.18,0,0,0-.36.53Z" fill="url(#e)"/><path d="M20.89,30.64l-.33.34Z" fill="url(#f)"/><path d="M2.33,13.32c3.85,1.45,7.87,3,11.75,4.55h0c-.74,10.17,2.06,14.66,5.7,18.66A3.51,3.51,0,0,1,19,34.2h0a3.74,3.74,0,0,1,.4-1.8,6.18,6.18,0,0,1,.36-.53h0c.23-.28.48-.58.77-.87l.33-.34.61-.62L22,29.6l.65-.58.58-.5.66-.56.71-.58.62-.5.87-.68.28-.21c.87-.67,1.79-1.34,2.77-2h0c5.71-4.14,13-8.77,19.63-12.89a3.63,3.63,0,0,0,1.17-5,3.71,3.71,0,0,0-.9-1l-4-3a10.72,10.72,0,0,0-13.27.44C30,4.09,28.1,5.63,26.28,7.16,23.17,5.42,20,3.73,16.88,1.94A10.45,10.45,0,0,0,4.13,4.07L.89,7.67a3.52,3.52,0,0,0,.29,5,3.43,3.43,0,0,0,1.15.65Z" fill="#005077"/><path d="M22.63,29l-.64.59Z" fill="url(#g)"/><path d="M20.55,31c-.29.3-.54.6-.77.87C20,31.58,20.27,31.31,20.55,31Z" fill="url(#h)"/><path d="M23.85,27.94l-.66.56Z" fill="url(#i)"/><path d="M25.18,26.86l-.62.5Z" fill="url(#j)"/><path d="M26.32,26l-.28.21Z" fill="url(#k)"/><path d="M20.89,30.64c.2-.2.4-.41.62-.62C21.28,30.23,21.07,30.44,20.89,30.64Z" fill="url(#l)"/><path d="M19,34.2a3.34,3.34,0,0,1,.19-1.2A3.34,3.34,0,0,0,19,34.2Z" fill="url(#m)"/><path d="M21.49,30c.15-.15.32-.29.47-.43Z" fill="url(#n)"/><path d="M29.09,23.92c-1,.71-1.9,1.39-2.77,2.06C27.19,25.31,28.11,24.63,29.09,23.92Z" fill="url(#o)"/><path d="M26,26.19l-.87.67Z" fill="url(#p)"/><path d="M24.56,27.36l-.71.58Z" fill="url(#q)"/><path d="M23.19,28.5l-.58.5Z" fill="url(#r)"/><path d="M14.07,17.87v.01h0Z" fill="#fff"/><path d="M19.42,32.4a6.18,6.18,0,0,1,.36-.53h0a6.18,6.18,0,0,0-.36.53Z" fill="url(#s)"/><path d="M20.89,30.64l-.33.34Z" fill="url(#t)"/><path d="M14.08,17.88h0c-.74,10.16,2.06,14.65,5.7,18.65A3.51,3.51,0,0,1,19,34.2h0a3.74,3.74,0,0,1,.4-1.8,6.18,6.18,0,0,1,.36-.53h0c.23-.28.48-.58.77-.87l.33-.34.61-.62L22,29.6l.65-.58.58-.5.66-.56.71-.58.62-.5.87-.68.28-.21c.87-.67,1.79-1.34,2.77-2h0Z" fill="url(#u)"/><path d="M14.08,17.88h0c-.74,10.16,2.06,14.65,5.7,18.65A3.51,3.51,0,0,1,19,34.2h0a3.74,3.74,0,0,1,.4-1.8,6.18,6.18,0,0,1,.36-.53h0c.23-.28.48-.58.77-.87l.33-.34.61-.62L22,29.6l.65-.58.58-.5.66-.56.71-.58.62-.5.87-.68.28-.21c.87-.67,1.79-1.34,2.77-2h0Z" fill="url(#u)"/><path d="M76.68,67.71l.64-.59C77.11,67.32,76.9,67.52,76.68,67.71Z" fill="#38b6ab"/><path d="M78.73,65.73c.29-.3.55-.6.77-.87C79.28,65.13,79,65.43,78.73,65.73Z" fill="#38b6ab"/><path d="M75.43,68.77l.67-.55Z" fill="#38b6ab"/><path d="M79.51,60.18c3.64,4,6.43,8.53,5.74,18.65,5.54-5.45,9.46-10.84,9.46-16.31h0C94.71,52,80.2,41.75,67.58,30.87a10.71,10.71,0,0,0-13.31-.43l-4,3a3.63,3.63,0,0,0-.73,5.08,3.51,3.51,0,0,0,1,.92C62.2,46.56,75.69,55.35,79.51,60.18" fill="#38b6ab"/><path d="M78.41,66.1c-.2.2-.4.41-.63.62A7.246,7.246,0,0,1,78.41,66.1Z" fill="#38b6ab"/><path d="M80.26,62.51a3.56,3.56,0,0,1-.16,1.22,3.56,3.56,0,0,0,.16-1.22Z" fill="url(#w)"/><path d="M77.78,66.69l-.46.43Z" fill="url(#x)"/><path d="M74.73,69.35l.7-.58Z" fill="url(#y)"/><path d="M76.1,68.22l.58-.51Z" fill="url(#z)"/><path d="M85.21,78.84v-.01l-.01.01Z" fill="url(#aa)"/><path d="M79.85,64.31a3.769,3.769,0,0,1-.34.54h0a3.769,3.769,0,0,0,.34-.54Z" fill="url(#ab)"/><path d="M78.41,66.1c.1-.11.23-.23.32-.34a2.68,2.68,0,0,0-.32.34Z" fill="url(#ac)"/><path d="M97,83.39c-3.85-1.44-7.88-3-11.76-4.55h0c.74-10.13-2-14.66-5.69-18.66a3.63,3.63,0,0,1,.75,2.33h0a3.41,3.41,0,0,1-.41,1.8,3.77,3.77,0,0,1-.34.54h0c-.22.27-.48.57-.77.87l-.32.33c-.11.12-.4.41-.63.62l-.46.44-.64.58-.59.51-.66.55-.7.58-.63.5c-.28.23-.56.45-.87.68l-.27.21c-.87.67-1.8,1.35-2.77,2h0c-5.71,4.11-13,8.75-19.62,12.86a3.63,3.63,0,0,0-1.19,5,3.51,3.51,0,0,0,.92,1l4,3a10.76,10.76,0,0,0,13.28-.45c1.8-1.55,3.63-3.1,5.47-4.62,3.1,1.74,6.28,3.42,9.4,5.22a10.43,10.43,0,0,0,12.73-2.11l3.22-3.6a3.49,3.49,0,0,0-.17-4.92A3.56,3.56,0,0,0,97,83.39Z" fill="#208a7a"/><path d="M76.68,67.71l.64-.59C77.11,67.32,76.9,67.52,76.68,67.71Z" fill="url(#ad)"/><path d="M78.73,65.73c.29-.3.55-.6.77-.87C79.28,65.13,79,65.43,78.73,65.73Z" fill="url(#ae)"/><path d="M75.43,68.77l.67-.55Z" fill="url(#af)"/><path d="M74.1,69.85l.63-.5Z" fill="url(#ag)"/><path d="M73,70.73l.27-.2Z" fill="url(#ah)"/><path d="M78.41,66.1c-.2.2-.4.41-.63.62A7.246,7.246,0,0,1,78.41,66.1Z" fill="url(#ai)"/><path d="M80.26,62.51a3.56,3.56,0,0,1-.16,1.22,3.56,3.56,0,0,0,.16-1.22Z" fill="url(#aj)"/><path d="M77.78,66.69l-.46.43Z" fill="url(#ak)"/><path d="M70.19,72.79c1-.7,1.9-1.39,2.77-2.06C72.09,71.4,71.16,72.09,70.19,72.79Z" fill="url(#al)"/><path d="M73.23,70.53c.31-.23.59-.46.87-.68C73.82,70.07,73.54,70.3,73.23,70.53Z" fill="url(#am)"/><path d="M74.73,69.35l.7-.58Z" fill="url(#an)"/><path d="M76.1,68.22l.58-.51Z" fill="url(#ao)"/><path d="M85.21,78.84v-.01l-.01.01Z" fill="url(#ap)"/><path d="M79.85,64.31a3.769,3.769,0,0,1-.34.54h0a3.769,3.769,0,0,0,.34-.54Z" fill="url(#aq)"/><path d="M78.41,66.1c.1-.11.23-.23.32-.34a2.68,2.68,0,0,0-.32.34Z" fill="url(#ar)"/><path d="M85.2,78.84h0c.74-10.13-2-14.66-5.69-18.66a3.63,3.63,0,0,1,.75,2.33h0a3.41,3.41,0,0,1-.41,1.8,3.77,3.77,0,0,1-.34.54h0c-.22.27-.48.57-.77.87l-.32.33c-.11.12-.4.41-.63.62l-.46.44-.64.58-.59.51-.66.55-.7.58-.63.5c-.28.23-.56.45-.87.68l-.27.21c-.87.67-1.8,1.35-2.77,2h0Z" fill="url(#as)"/><path d="M85.2,78.84h0c.74-10.13-2-14.66-5.69-18.66a3.63,3.63,0,0,1,.75,2.33h0a3.41,3.41,0,0,1-.41,1.8,3.77,3.77,0,0,1-.34.54h0c-.22.27-.48.57-.77.87l-.32.33c-.11.12-.4.41-.63.62l-.46.44-.64.58-.59.51-.66.55-.7.58-.63.5c-.28.23-.56.45-.87.68l-.27.21c-.87.67-1.8,1.35-2.77,2h0Z" fill="url(#as)"/></g></svg>